<svg width="386" height="183" viewBox="0 0 386 183" fill="none" xmlns="http://www.w3.org/2000/svg">
<path d="M4.00391 83.1055L5.07812 82.8125C10.2865 82.8125 14.7786 83.3984 18.5547 84.5703H20.2148H21.4844L21.6797 85.0586L21.582 90.7227C21.5169 91.1133 21.2891 91.3086 20.8984 91.3086L19.7266 90.1367L17.0898 89.5508H16.2109L15.625 89.7461V90.1367C16.5365 90.5273 17.1224 90.7227 17.3828 90.7227V90.918C17.3828 91.1784 16.6341 91.3737 15.1367 91.5039L14.5508 110.547V112.598L14.4531 138.77V140.332C14.4531 140.918 16.276 141.211 19.9219 141.211H38.6719L41.7969 141.406C42.1875 141.406 42.513 139.616 42.7734 136.035C42.9688 135.124 43.2617 134.668 43.6523 134.668C47.4935 134.798 49.4141 135.156 49.4141 135.742C49.1536 136.328 48.763 136.621 48.2422 136.621V136.914C48.8932 137.565 49.2188 138.118 49.2188 138.574C49.2188 140.072 48.9909 142.057 48.5352 144.531V145.996L48.6328 146.484C48.2422 147.201 48.0469 147.852 48.0469 148.438C47.9167 148.438 47.6562 148.861 47.2656 149.707C45.8333 150.228 44.4336 150.488 43.0664 150.488H42.6758L34.2773 149.707H33.7891L14.5508 150.488L1.17188 149.219C0.651042 148.828 0.390625 148.405 0.390625 147.949C0.911458 144.108 1.72526 142.188 2.83203 142.188C3.15755 141.862 4.42708 141.602 6.64062 141.406C7.48698 139.323 7.51953 129.883 6.73828 113.086C7.12891 108.529 7.45443 101.758 7.71484 92.7734V91.7969C7.71484 90.8203 7.03125 90.332 5.66406 90.332L4.78516 90.1367V89.8438C5.95703 89.2578 6.86849 88.9648 7.51953 88.9648V88.5742L5.27344 88.2812H3.90625V88.6719C4.16667 88.6719 4.29688 88.7695 4.29688 88.9648C4.10156 89.2904 3.80859 89.4531 3.41797 89.4531H3.02734C2.3763 89.1927 2.05078 88.444 2.05078 87.207V86.9141C2.05078 85.4167 2.47396 84.4727 3.32031 84.082C3.51562 84.082 3.74349 83.7565 4.00391 83.1055ZM4.78516 86.1328L4.49219 86.3281V86.5234H4.98047L5.27344 86.2305V86.1328H4.78516ZM17.7734 86.2305L17.3828 86.5234V86.7188L18.0664 86.9141V87.0117L17.7734 87.207L15.8203 87.1094L15.7227 87.207V87.6953L16.0156 87.9883H17.9688C19.0104 87.9883 19.5312 87.6302 19.5312 86.9141C19.0755 86.4583 18.5872 86.2305 18.0664 86.2305H17.7734ZM10.5469 86.9141C10.8073 87.3698 11.5234 87.5977 12.6953 87.5977H13.3789L13.8672 87.1094C13.2812 86.7188 12.6953 86.5234 12.1094 86.5234H11.3281C10.8073 86.5234 10.5469 86.6536 10.5469 86.9141ZM12.793 88.6719L12.3047 88.8672V88.9648L12.5 89.3555H13.1836L13.7695 89.1602V88.8672L13.1836 88.6719H12.793ZM12.4023 90.7227L12.3047 90.918V92.2852C12.3698 93.1315 12.5326 93.5547 12.793 93.5547L13.3789 93.1641V92.4805C13.3138 91.3086 12.9883 90.7227 12.4023 90.7227ZM11.7188 110.059H11.4258C10.9049 112.793 10.8724 114.583 11.3281 115.43C11.6536 116.016 11.8815 115.82 12.0117 114.844L12.1094 111.621C12.0443 110.579 11.9141 110.059 11.7188 110.059ZM47.5586 138.379H47.3633C46.8424 139.746 46.582 140.527 46.582 140.723L45.8008 144.824V145.215L46.0938 145.508H46.3867C47.2331 145.117 47.7214 143.262 47.8516 139.941C47.7865 138.9 47.6888 138.379 47.5586 138.379ZM11.3281 138.77H10.8398V139.062C10.5143 140.039 10.3516 140.755 10.3516 141.211C10.3516 142.122 10.5794 142.676 11.0352 142.871H11.4258C11.6862 142.871 11.8164 141.927 11.8164 140.039V139.648C11.8164 139.193 11.6536 138.9 11.3281 138.77ZM38.1836 142.09H37.207V142.383C37.207 142.578 37.6302 142.708 38.4766 142.773C38.4766 143.294 39.0625 143.587 40.2344 143.652L42.0898 143.457V143.066C40.8529 143.066 39.5508 142.741 38.1836 142.09ZM35.4492 143.066H32.9102V143.164C32.9753 143.359 33.3008 143.457 33.8867 143.457H36.0352V143.164L35.4492 143.066ZM2.24609 144.531C2.76693 144.531 3.02734 144.303 3.02734 143.848V143.652H2.83203C2.44141 143.717 2.24609 144.01 2.24609 144.531ZM11.9141 144.336H11.4258V144.824C12.5977 145.02 18.457 145.378 29.0039 145.898L29.1992 145.801V145.605L11.9141 144.336ZM2.44141 145.215L1.85547 145.312V145.605L2.14844 145.898H2.44141L2.73438 145.605V145.508L2.44141 145.215ZM34.668 146.094L34.4727 146.289V146.484L35.3516 146.68H36.7188V146.484C36.7188 146.224 36.4909 146.094 36.0352 146.094H34.668ZM38.8672 147.363V147.461H39.1602C39.8112 147.461 40.4622 147.201 41.1133 146.68C41.0482 146.419 40.7878 146.289 40.332 146.289C40.0716 146.289 39.5833 146.647 38.8672 147.363ZM41.6992 147.754L40.2344 147.852V147.949C40.7552 148.47 41.4062 148.73 42.1875 148.73H42.4805C42.806 148.73 43.099 148.6 43.3594 148.34C43.6849 148.6 44.043 148.73 44.4336 148.73H45.2148C45.931 148.73 46.3216 148.6 46.3867 148.34V148.242C46.3867 147.917 45.3776 147.754 43.3594 147.754H41.6992ZM15.0391 148.633L12.8906 148.73V148.926C12.8906 149.382 14.4206 149.674 17.4805 149.805C19.4987 149.805 21.1589 149.609 22.4609 149.219V148.926C19.7266 148.73 17.2852 148.633 15.1367 148.633H15.0391ZM10.9375 148.926H10.7422V149.219H10.9375V148.926ZM26.1719 148.926L25.5859 149.121V149.512H26.1719L27.3438 149.219V148.926H26.1719ZM75.4883 100.977C78.2227 100.977 81.543 102.148 85.4492 104.492C88.7695 106.966 90.4297 108.659 90.4297 109.57C93.0339 115.039 94.3359 118.327 94.3359 119.434L94.4336 120.215C93.457 122.493 92.9688 124.056 92.9688 124.902L92.3828 125H84.082C83.3008 125 82.3568 125.098 81.25 125.293C71.875 124.512 65.2995 124.121 61.5234 124.121H59.4727C58.6914 125.293 58.3008 126.139 58.3008 126.66C58.7565 127.376 58.9844 128.516 58.9844 130.078C58.9844 132.552 59.375 134.017 60.1562 134.473L60.2539 134.961V135.059L59.668 134.766V135.059L60.5469 136.035C60.5469 136.882 61.1328 137.956 62.3047 139.258C64.4531 143.034 66.7969 145.378 69.3359 146.289C71.4844 147.005 73.9258 147.363 76.6602 147.363C77.1159 147.363 78.0599 146.94 79.4922 146.094C80.6641 145.833 83.138 143.717 86.9141 139.746V139.453C86.9141 139.323 86.4583 139.193 85.5469 139.062L85.3516 138.574C86.849 135.71 88.6393 133.822 90.7227 132.91C91.3086 133.496 92.513 134.408 94.3359 135.645C95.7682 137.858 97.6888 140.462 100.098 143.457V143.848C98.0143 146.582 96.5169 147.949 95.6055 147.949H95.2148C95.2148 146.517 94.3359 145.703 92.5781 145.508C92.2526 145.508 90.8203 146.582 88.2812 148.73C86.7839 149.902 84.2122 151.009 80.5664 152.051C76.3346 152.897 73.3398 153.32 71.582 153.32L66.0156 151.367C62.8906 151.367 60.026 149.674 57.4219 146.289C56.3151 145.117 55.4036 143.717 54.6875 142.09C54.6875 141.569 53.9714 138.867 52.5391 133.984C52.0833 132.096 51.8555 130.273 51.8555 128.516V128.418C51.8555 119.759 54.4596 112.174 59.668 105.664C60.319 104.036 61.8164 102.832 64.1602 102.051C65.7227 101.595 67.6107 101.237 69.8242 100.977C70.4102 100.716 72.2982 100.716 75.4883 100.977ZM66.5039 103.027V103.125H66.6992C67.7409 103.125 69.694 102.767 72.5586 102.051C73.1445 101.986 73.4375 101.823 73.4375 101.562L73.1445 101.27H73.0469C71.1589 101.27 69.043 101.79 66.6992 102.832L66.5039 103.027ZM62.5977 104.688V104.785L62.8906 104.98H62.9883C64.2904 104.655 64.9414 104.329 64.9414 104.004V103.418L64.5508 103.027H64.3555C63.1836 103.418 62.5977 103.971 62.5977 104.688ZM77.6367 103.711H74.707V103.906C74.707 104.167 76.0417 104.362 78.7109 104.492H78.8086V104.102C78.8086 103.971 78.418 103.841 77.6367 103.711ZM70.7031 105.176V105.273C70.7031 105.534 72.0378 105.859 74.707 106.25L74.9023 106.152V105.762C74.3815 105.046 73.5026 104.688 72.2656 104.688H71.9727C71.1263 104.753 70.7031 104.915 70.7031 105.176ZM76.6602 105.762V105.859C80.3711 108.008 82.3568 109.082 82.6172 109.082H82.7148L83.6914 108.691L84.2773 108.887L84.375 108.691V108.594C84.1146 108.398 83.5612 108.203 82.7148 108.008L80.7617 107.129C80.2409 106.022 79.1992 105.469 77.6367 105.469H77.3438C76.888 105.534 76.6602 105.632 76.6602 105.762ZM65.0391 108.594C65.6901 108.073 66.9922 107.52 68.9453 106.934V106.738L68.8477 106.543H67.8711C65.9831 107.064 65.0391 107.747 65.0391 108.594ZM59.8633 115.039V115.332C59.8633 116.048 65.7878 116.862 77.6367 117.773L78.6133 118.066L79.8828 117.969C82.487 118.815 84.2448 119.238 85.1562 119.238C85.1562 119.434 85.3516 119.596 85.7422 119.727C86.1328 119.141 86.3281 118.587 86.3281 118.066V116.211C86.3281 115.365 84.7005 113.477 81.4453 110.547C79.9479 109.049 78.2552 108.203 76.3672 108.008L73.0469 107.422C67.6432 108.529 64.0951 109.863 62.4023 111.426C61.6862 112.793 60.8398 113.997 59.8633 115.039ZM60.9375 109.18V109.375H61.1328C61.9792 109.18 62.4023 108.952 62.4023 108.691V108.594H61.9141C61.5885 108.594 61.263 108.789 60.9375 109.18ZM84.2773 110.547C84.4076 111.068 84.7005 111.328 85.1562 111.328H85.3516L85.5469 111.035V110.449L85.1562 109.961C84.5703 109.961 84.2773 110.156 84.2773 110.547ZM59.082 111.035L58.8867 111.328V111.426H59.082L59.4727 111.133V111.035H59.082ZM86.7188 111.816H86.3281C87.0443 113.965 87.5651 115.137 87.8906 115.332H88.2812L88.5742 115.137C88.0534 113.053 87.5 112.012 86.9141 112.012L86.7188 111.816ZM59.9609 113.574C60.3516 113.509 60.5469 113.249 60.5469 112.793V112.695C60.1562 112.826 59.9609 113.118 59.9609 113.574ZM90.0391 116.211L89.7461 116.406V117.09L90.0391 117.48C90.2995 117.415 90.4297 117.188 90.4297 116.797V116.406L90.332 116.211H90.0391ZM58.8867 117.578V117.969L59.082 118.164H59.2773C59.7331 117.969 60.1237 117.611 60.4492 117.09V116.797H59.9609C59.5703 116.797 59.2122 117.057 58.8867 117.578ZM54.8828 116.992C54.362 117.513 53.9062 118.815 53.5156 120.898H53.7109C54.1016 120.898 54.6875 119.759 55.4688 117.48C55.3385 117.155 55.1432 116.992 54.8828 116.992ZM64.8438 118.164V118.457C66.0807 119.303 68.3268 119.727 71.582 119.727H72.4609L73.7305 119.629V119.238C71.0612 118.652 68.099 118.294 64.8438 118.164ZM82.7148 120.703H82.4219V120.996H82.7148V120.703ZM63.8672 121.484V121.68C65.1693 122.005 68.6198 122.331 74.2188 122.656V122.754V122.852L72.168 123.145C72.168 123.34 73.0143 123.438 74.707 123.438C77.4414 123.438 78.8086 123.307 78.8086 123.047C78.8086 122.396 73.8281 121.875 63.8672 121.484ZM54.0039 122.168H53.5156V122.754C53.5156 123.145 53.6133 123.34 53.8086 123.34C54.1341 123.34 54.3294 123.014 54.3945 122.363L54.0039 122.168ZM61.9141 122.363L61.4258 122.461V123.047H61.9141V122.656V122.461V122.363ZM58.7891 123.145V123.242H58.8867L60.5469 123.047V122.852L60.2539 122.461H59.9609C59.375 122.461 58.9844 122.689 58.7891 123.145ZM82.5195 123.34C82.5195 123.6 83.1055 123.73 84.2773 123.73L85.1562 123.633V123.438C85.1562 123.177 84.5378 123.047 83.3008 123.047C82.7799 123.177 82.5195 123.275 82.5195 123.34ZM53.5156 125.879V126.172V126.27C53.4505 126.465 53.418 126.921 53.418 127.637V128.027C53.418 129.199 53.7435 130.241 54.3945 131.152H54.4922C54.4922 128.027 54.1667 126.27 53.5156 125.879ZM55.2734 134.375H54.9805V134.57L55.2734 134.766H55.4688V134.57L55.2734 134.375ZM55.957 136.035L55.8594 136.133V136.328C56.1198 137.37 56.5104 137.891 57.0312 137.891V137.793V137.598C57.0312 137.077 56.6732 136.556 55.957 136.035ZM87.793 136.914L87.9883 137.207H88.4766C88.8672 137.207 89.0951 137.077 89.1602 136.816L88.7695 136.426H88.6719C88.2161 136.426 87.9232 136.589 87.793 136.914ZM85.5469 142.578L85.7422 142.676H85.8398C86.556 142.676 87.0117 142.253 87.207 141.406V141.211C86.4909 141.211 85.9375 141.667 85.5469 142.578ZM92.3828 142.383L92.4805 142.48H92.7734C93.1641 142.22 93.3594 141.862 93.3594 141.406H93.0664C92.6107 141.667 92.3828 141.992 92.3828 142.383ZM95.8008 141.406H95.7031V141.602C95.8984 142.383 96.1914 142.773 96.582 142.773H96.6797L96.875 142.578V142.48C96.7448 141.764 96.3867 141.406 95.8008 141.406ZM90.1367 143.457L90.4297 143.652C91.4062 143.327 91.8945 142.904 91.8945 142.383V142.188H91.7969C90.8854 142.188 90.332 142.611 90.1367 143.457ZM82.5195 145.605H82.7148C83.2357 145.41 83.5286 145.085 83.5938 144.629L83.4961 144.531C82.8451 144.922 82.5195 145.28 82.5195 145.605ZM88.2812 146.094H88.6719C89.3229 145.508 89.6484 145.085 89.6484 144.824H89.5508C88.7044 145.085 88.2812 145.508 88.2812 146.094ZM60.5469 146.973H60.2539V147.363C60.3841 147.689 60.9375 148.047 61.9141 148.438L62.3047 148.73C61.5885 147.624 61.0026 147.038 60.5469 146.973ZM67.3828 147.363H67.2852V147.461C67.2852 147.721 67.9688 148.014 69.3359 148.34L69.4336 148.242V148.047C68.5872 147.591 67.9036 147.363 67.3828 147.363ZM73.1445 148.438H72.8516V148.73H73.1445V148.438ZM83.3008 149.902C83.9518 149.902 84.4727 149.414 84.8633 148.438H84.5703C83.724 148.893 83.3008 149.382 83.3008 149.902ZM76.4648 150.879L74.4141 150.684H74.0234C73.4375 150.684 73.112 150.814 73.0469 151.074V151.27L73.4375 151.562H75.1953C77.2135 151.562 79.5898 151.204 82.3242 150.488C82.194 150.098 81.8034 149.902 81.1523 149.902H80.6641C79.1016 149.902 77.7018 150.228 76.4648 150.879ZM114.355 97.0703L126.465 96.7773C127.507 96.7773 129.688 97.2331 133.008 98.1445C136.784 101.725 139.03 104.525 139.746 106.543C141.178 108.04 142.318 111.003 143.164 115.43C144.206 116.471 144.727 118.783 144.727 122.363L144.824 124.805L144.434 134.473C144.434 136.426 145.638 138.835 148.047 141.699C150.26 143.848 151.693 144.922 152.344 144.922V145.117C152.344 145.898 151.204 147.135 148.926 148.828C147.233 150.521 146.159 151.367 145.703 151.367H145.605C144.564 151.237 141.927 149.316 137.695 145.605C130.013 148.6 126.139 150.13 126.074 150.195C123.535 150.977 120.703 151.367 117.578 151.367H117.09C113.574 150.781 110.579 149.414 108.105 147.266C107.65 146.875 106.706 145.247 105.273 142.383C104.102 140.951 103.516 139.193 103.516 137.109V134.277C103.516 132.454 104.004 130.762 104.98 129.199C105.827 126.53 107.292 123.991 109.375 121.582C110.417 120.345 111.458 119.564 112.5 119.238C115.885 117.415 119.238 116.504 122.559 116.504L126.953 116.406H127.539C130.013 116.406 131.771 116.764 132.812 117.48H133.398C133.724 117.48 133.887 117.35 133.887 117.09C133.171 114.03 131.999 111.1 130.371 108.301C128.939 105.892 126.27 104.688 122.363 104.688L118.359 104.102C114.909 104.818 113.184 105.534 113.184 106.25C111.816 108.008 111.003 110.189 110.742 112.793C110.612 113.118 109.44 113.281 107.227 113.281L106.641 113.477C106.38 113.477 106.055 114.03 105.664 115.137C103.841 114.876 102.93 114.486 102.93 113.965C103.06 113.574 103.288 111.23 103.613 106.934C104.655 103.939 107.129 101.172 111.035 98.6328C112.858 97.5911 113.965 97.0703 114.355 97.0703ZM125.293 98.7305L125.098 99.0234L125.391 99.4141H125.977L126.074 99.2188L125.781 98.7305H125.293ZM132.715 99.5117H132.52V99.707C133.04 100.228 133.496 100.488 133.887 100.488H133.984V100.293C133.464 99.7721 133.04 99.5117 132.715 99.5117ZM117.09 100V100.293C117.155 100.488 117.48 100.586 118.066 100.586C118.652 100.586 119.466 100.391 120.508 100V99.6094H120.117C118.685 99.6094 117.676 99.7396 117.09 100ZM108.301 103.125V103.32H108.398C108.984 103.32 109.863 102.702 111.035 101.465V101.172H110.938C110.286 101.172 109.408 101.823 108.301 103.125ZM121.875 102.441L121.387 102.832L121.68 103.32H122.949L123.242 103.027L122.656 102.441H121.875ZM107.52 110.352L107.227 110.547V112.012H107.324C107.585 111.947 107.715 111.719 107.715 111.328V110.547L107.52 110.352ZM142.969 118.164H142.871V118.359C143.001 118.88 143.132 119.141 143.262 119.141L143.359 118.652C143.229 118.327 143.099 118.164 142.969 118.164ZM140.723 121.582L140.43 121.777V122.07C140.69 123.047 140.951 123.535 141.211 123.535H141.406C141.406 122.689 141.211 122.038 140.82 121.582H140.723ZM112.109 122.168L111.035 122.656V123.145H111.23C111.686 123.145 112.012 122.884 112.207 122.363V122.168H112.109ZM111.035 131.445C111.491 135.352 112.044 137.305 112.695 137.305L113.672 138.574V138.672L112.793 138.574V138.867C114.03 140.56 116.569 142.122 120.41 143.555C120.866 143.815 121.517 144.01 122.363 144.141C123.535 144.141 128.027 142.22 135.84 138.379C136.361 138.053 136.621 137.695 136.621 137.305V136.816C136.035 134.147 135.547 131.022 135.156 127.441L134.961 127.344C134.961 126.628 134.245 126.042 132.812 125.586C127.995 124.219 124.707 123.535 122.949 123.535C118.001 124.642 114.616 126.302 112.793 128.516C111.621 129.688 111.035 130.664 111.035 131.445ZM140.43 125.098L140.137 124.902V125.195H140.43V125.098ZM140.82 126.953H140.234V127.344L140.527 127.637L140.82 127.344V126.953ZM137.695 129.395L137.402 129.688L137.695 130.078L138.086 129.98V129.688L137.793 129.395H137.695ZM141.211 129.688H140.918V129.785C141.048 132.259 141.309 133.496 141.699 133.496L141.895 133.301V133.105C141.895 131.738 141.667 130.599 141.211 129.688ZM137.402 132.812L137.305 132.91V133.496L137.598 133.887H137.695L138.086 133.496V132.91L137.793 132.812H137.402ZM145.703 141.992H145.41V142.578C145.671 143.424 145.964 143.848 146.289 143.848H146.582V143.555C146.322 142.513 146.029 141.992 145.703 141.992ZM109.766 142.285L109.57 142.48V142.578L109.766 142.773H110.254V142.578L109.961 142.285H109.766ZM142.676 143.555L142.383 143.848C142.578 144.303 142.839 144.596 143.164 144.727H143.262L143.652 144.336V144.141L143.164 143.555H142.676ZM128.516 144.922V145.117H128.906C129.818 145.117 131.022 144.727 132.52 143.945V143.848H132.129C129.915 144.108 128.711 144.466 128.516 144.922ZM144.824 145.215L144.629 145.605V145.801L145.02 146.191H145.41L145.703 145.996V145.801L145.215 145.215H144.824ZM120.703 145.996L120.41 146.289C120.54 146.615 120.801 146.777 121.191 146.777C121.908 146.647 122.266 146.484 122.266 146.289V146.191L121.973 145.996H120.703ZM110.059 147.363L109.766 147.754C110.026 148.34 111.654 149.089 114.648 150C115.625 150.456 116.927 150.684 118.555 150.684V150.586C118.555 150.391 117.318 150.033 114.844 149.512C113.411 149.121 111.914 148.405 110.352 147.363H110.059ZM191.113 104.492C193.652 104.492 195.801 106.283 197.559 109.863C197.884 109.863 198.34 110.286 198.926 111.133L200.195 118.359C199.74 119.141 198.014 119.531 195.02 119.531H194.043C191.634 119.141 190.43 118.327 190.43 117.09C190.43 116.178 189.681 114.909 188.184 113.281C187.988 112.956 186.589 112.793 183.984 112.793C181.51 112.793 178.516 113.444 175 114.746C172.526 117.35 170.898 119.368 170.117 120.801C170.573 131.934 170.736 138.9 170.605 141.699C170.605 142.285 170.996 142.578 171.777 142.578H174.121C175.163 142.643 175.684 142.839 175.684 143.164V143.262L176.074 144.531L175.879 150L175.293 150.781L170.703 151.27H170.312L168.359 151.855C160.872 151.595 157.129 151.302 157.129 150.977C155.827 150.977 155.176 150.391 155.176 149.219C155.046 148.047 154.98 146.842 154.98 145.605C154.98 144.368 156.25 143.555 158.789 143.164C158.789 142.643 159.668 142.383 161.426 142.383L161.719 142.285V142.09L161.133 115.332C161.133 113.704 160.71 112.891 159.863 112.891H159.277C158.496 112.891 157.194 113.249 155.371 113.965L155.176 113.77V113.574C155.176 113.444 155.436 113.281 155.957 113.086V112.891C155.306 112.891 154.98 111.068 154.98 107.422C154.85 107.422 154.753 106.836 154.688 105.664C157.292 103.646 160.026 102.637 162.891 102.637H165.332C166.309 102.637 167.969 102.962 170.312 103.613V103.906C169.727 104.818 169.434 105.469 169.434 105.859V106.543C174.707 104.199 181.934 103.516 191.113 104.492ZM165.527 119.238V119.727C165.853 120.378 166.016 121.061 166.016 121.777C165.951 122.038 165.853 123.372 165.723 125.781L165.918 129.688H166.016C166.211 129.688 166.471 126.66 166.797 120.605C166.927 120.605 166.992 119.954 166.992 118.652C166.927 118.066 166.764 117.773 166.504 117.773H166.309C165.788 118.099 165.527 118.587 165.527 119.238ZM159.668 148.73L158.398 148.828V149.023C158.398 149.349 159.342 149.512 161.23 149.512H164.16L164.844 149.414C164.844 149.089 163.118 148.861 159.668 148.73ZM176.562 108.691V108.887C177.148 108.887 177.93 107.943 178.906 106.055V105.566H178.809C177.116 106.087 176.367 107.129 176.562 108.691ZM189.16 111.816H189.648C189.974 111.751 190.592 110.97 191.504 109.473V109.375C191.504 109.245 191.374 109.18 191.113 109.18C190.007 109.701 189.453 110.384 189.453 111.23C189.388 111.23 189.29 111.426 189.16 111.816ZM166.699 114.062H166.309L165.82 116.113C165.82 116.439 166.016 116.764 166.406 117.09H166.504C166.699 117.09 166.862 116.634 166.992 115.723L166.699 114.062ZM180.273 106.543L180.762 108.496H181.543V106.445L181.25 106.152H180.957C180.501 106.217 180.273 106.348 180.273 106.543ZM158.984 147.168L158.789 147.363L158.887 147.559H164.258V147.266L160.938 147.168H158.984ZM157.227 106.445C157.747 106.966 158.301 107.227 158.887 107.227L158.984 107.031V106.348L158.594 105.859C157.682 105.99 157.227 106.185 157.227 106.445ZM167.09 147.852L167.383 148.145H168.848L169.238 147.754C169.238 147.624 169.076 147.493 168.75 147.363C167.643 147.493 167.09 147.656 167.09 147.852ZM195.215 109.082H194.922V109.277C195.443 109.798 195.898 110.059 196.289 110.059H196.582V109.863C196.061 109.342 195.605 109.082 195.215 109.082ZM161.719 104.492H161.426V104.883L162.012 105.566H162.891V105.371L161.719 104.492ZM158.789 110.254V110.449H159.082C159.798 110.449 160.189 110.319 160.254 110.059L160.059 109.766H159.863C159.277 109.766 158.919 109.928 158.789 110.254ZM183.789 105.664L182.617 105.762V105.859L182.812 106.152H183.789C184.245 106.152 184.505 106.022 184.57 105.762L184.375 105.664H183.789ZM168.359 137.109L167.969 137.402V138.184H168.359L168.75 137.891V137.305L168.555 137.109H168.359ZM156.641 147.754L156.25 147.363L156.055 147.754V148.145L156.25 148.438H156.641V147.754ZM170.312 110.84L169.922 110.938V111.23L170.312 111.523H170.605L170.898 111.23V110.938L170.312 110.84ZM185.742 105.566V105.762H186.426L186.816 105.469L186.523 105.176C186.003 105.306 185.742 105.436 185.742 105.566ZM192.188 105.566L191.992 105.762V105.859L192.188 106.152H192.578L192.773 105.859V105.762L192.578 105.566H192.188ZM168.457 104.59L167.969 104.785V105.176H168.457L168.75 104.785L168.457 104.59ZM168.164 106.348L167.773 106.641V106.836L167.969 107.031L168.457 106.641V106.348H168.164ZM191.895 114.453V114.648H192.09L192.48 114.355V114.062H192.383C192.057 114.258 191.895 114.388 191.895 114.453ZM188.574 105.859L188.184 106.152V106.25H188.672L188.867 106.055V105.859H188.574ZM168.359 139.258H168.164V139.648H168.359V139.258ZM203.027 100.781L203.223 100.586C204.72 100.846 206.283 100.977 207.91 100.977H215.918L216.211 101.27C215.82 102.441 215.625 103.353 215.625 104.004V105.664C215.885 107.487 216.406 108.398 217.188 108.398C217.578 107.682 218.88 106.999 221.094 106.348C226.367 104.069 230.664 102.93 233.984 102.93C236.198 102.93 238.574 103.906 241.113 105.859C243.001 106.576 244.824 108.105 246.582 110.449C249.251 114.681 250.586 119.661 250.586 125.391V126.172L249.902 133.203L250.586 138.281L249.609 142.871V143.066V143.848L253.32 144.043H254.98C256.087 144.043 256.738 144.141 256.934 144.336C256.673 149.089 256.185 151.465 255.469 151.465C254.167 152.246 252.767 152.637 251.27 152.637H249.219C246.094 152.637 242.806 153.06 239.355 153.906C237.077 153.581 235.938 152.441 235.938 150.488L235.84 146.973C235.84 144.824 236.393 143.262 237.5 142.285C238.086 139.095 238.77 136.198 239.551 133.594L240.137 124.902C240.332 124.902 240.43 124.186 240.43 122.754C240.43 120.996 239.03 118.49 236.23 115.234C234.082 114.323 232.845 113.867 232.52 113.867C228.743 113.867 225.358 115.462 222.363 118.652C222.103 118.652 220.508 120.247 217.578 123.438C216.667 124.154 216.211 126.335 216.211 129.98C216.341 136.556 216.569 139.844 216.895 139.844C219.499 140.299 220.801 140.788 220.801 141.309V141.699L218.652 141.602L217.09 141.699V142.09C217.09 142.35 218.327 142.676 220.801 143.066C221.257 143.522 221.484 144.271 221.484 145.312V145.508C221.484 147.07 221.159 148.73 220.508 150.488L209.18 150.586C208.073 150.586 207.259 150.033 206.738 148.926C206.478 147.689 206.185 145.28 205.859 141.699C205.859 141.374 206.836 141.016 208.789 140.625L209.277 139.941V139.844C209.277 139.453 209.017 138.9 208.496 138.184V135.156V129.59L208.887 120.605C208.887 114.486 208.626 111.426 208.105 111.426H207.617L203.027 112.012C202.572 112.012 201.953 111.621 201.172 110.84V110.449C201.497 109.928 201.66 109.375 201.66 108.789L201.465 105.176L203.027 100.781ZM211.523 102.539L203.516 103.809V104.004C203.516 104.199 204.004 104.329 204.98 104.395C209.212 104.395 211.328 104.102 211.328 103.516L211.719 102.93V102.734H211.523V102.539ZM230.957 104.395V104.492C231.413 104.492 232.194 104.883 233.301 105.664L234.375 105.957L237.5 105.859L237.598 105.664V105.566C237.533 105.176 237.174 104.98 236.523 104.98H236.133L235.156 105.176C233.724 104.329 232.682 103.906 232.031 103.906C231.445 103.906 231.087 104.069 230.957 104.395ZM224.316 106.152V106.25L224.512 106.543C227.572 105.762 229.102 105.176 229.102 104.785H228.906C227.474 104.785 225.944 105.241 224.316 106.152ZM205.469 106.25L205.762 106.543H205.957C206.803 106.478 207.227 106.283 207.227 105.957L206.738 105.859C205.892 105.859 205.469 105.99 205.469 106.25ZM206.348 108.203V108.398L208.203 108.301H208.496C209.147 108.301 209.538 108.464 209.668 108.789V109.082C209.342 109.408 209.18 109.733 209.18 110.059C209.505 110.319 209.896 110.449 210.352 110.449C210.547 110.449 210.645 110.319 210.645 110.059L210.742 106.836L210.645 106.543H210.352C209.961 106.803 208.659 107.324 206.445 108.105L206.348 108.203ZM222.559 107.129L222.656 107.227V107.324C223.242 107.129 223.535 106.966 223.535 106.836V106.641H223.34C222.819 106.771 222.559 106.934 222.559 107.129ZM202.832 107.227V107.324C202.832 107.52 202.995 107.682 203.32 107.812C203.841 107.812 204.427 107.52 205.078 106.934V106.836H203.516C203.06 106.901 202.832 107.031 202.832 107.227ZM236.523 108.789C236.523 109.049 237.109 109.245 238.281 109.375C238.542 109.18 238.672 108.919 238.672 108.594C238.672 108.268 238.151 108.008 237.109 107.812C236.719 108.073 236.523 108.398 236.523 108.789ZM216.797 109.57V109.961C217.708 109.961 218.685 109.375 219.727 108.203V108.105L219.629 108.008H219.531C218.75 108.008 217.839 108.529 216.797 109.57ZM240.234 108.203L239.941 108.594C240.072 108.919 240.332 109.082 240.723 109.082H241.211L241.699 108.691V108.594C241.634 108.333 241.309 108.203 240.723 108.203H240.234ZM229.395 109.18V109.375H229.883C230.859 109.245 231.348 109.049 231.348 108.789V108.594H230.664C229.818 108.659 229.395 108.854 229.395 109.18ZM213.379 108.691H212.891L212.695 109.277V111.035C212.695 111.816 212.565 112.337 212.305 112.598V113.086L212.695 114.453V115.234C212.695 115.755 212.858 116.113 213.184 116.309C213.249 116.309 213.444 115.56 213.77 114.062C214.681 113.346 215.137 112.793 215.137 112.402C215.137 112.077 214.779 111.361 214.062 110.254C213.867 109.212 213.639 108.691 213.379 108.691ZM203.613 110.254V110.449H204.59L204.98 110.059V109.961L204.492 109.766C203.906 109.961 203.613 110.124 203.613 110.254ZM238.574 110.547L237.988 110.254L237.793 110.449V110.547L238.281 110.84H238.379L238.574 110.547ZM231.055 111.23L231.25 111.426H231.348C232.78 111.426 233.496 111.296 233.496 111.035L232.715 110.84C231.608 110.97 231.055 111.1 231.055 111.23ZM216.895 115.039V115.332C218.587 115.137 220.931 113.737 223.926 111.133V111.035H223.34C223.079 111.035 222.298 111.491 220.996 112.402C218.262 113.249 216.895 114.128 216.895 115.039ZM240.234 111.23H240.137V111.523C240.137 111.719 240.56 112.63 241.406 114.258C241.406 114.779 241.536 115.039 241.797 115.039L242.188 114.648V114.258C242.188 113.216 241.536 112.207 240.234 111.23ZM209.863 112.402L210.059 112.695H210.254L210.547 111.426H210.254C210.059 111.426 209.928 111.751 209.863 112.402ZM234.473 113.086V113.379H236.914L237.305 113.086V112.695L236.816 112.402H236.328C235.091 112.598 234.473 112.826 234.473 113.086ZM224.805 114.648C226.237 114.388 226.953 114.03 226.953 113.574L226.66 113.379H226.367C225.391 113.379 224.87 113.802 224.805 114.648ZM221.68 115.82V116.016H221.973C223.014 115.169 223.535 114.453 223.535 113.867H223.34V113.672C222.819 113.672 222.266 114.388 221.68 115.82ZM214.16 114.844L214.355 115.43C214.355 115.951 214.062 116.471 213.477 116.992C213.802 117.318 213.965 117.643 213.965 117.969C213.965 121.224 214.193 122.852 214.648 122.852H214.746C215.267 121.68 215.527 120.15 215.527 118.262C215.462 115.853 215.169 114.583 214.648 114.453H214.453C214.258 114.453 214.16 114.583 214.16 114.844ZM241.699 116.113V116.406C242.48 119.336 242.969 120.866 243.164 120.996L243.359 120.312V119.434C242.904 117.22 242.35 116.113 241.699 116.113ZM246.094 116.309H245.996C246.126 119.759 246.452 121.484 246.973 121.484H247.168C246.842 118.034 246.484 116.309 246.094 116.309ZM220.508 116.504L219.922 117.285V117.48L220.02 117.676H220.508L220.801 116.504H220.508ZM217.773 117.48L217.578 117.676L217.773 117.969H218.164V117.676L217.969 117.48H217.773ZM245.41 129.004V129.102L245.703 130.273H246.191C246.126 129.427 245.866 129.004 245.41 129.004ZM241.699 136.035L241.797 136.133H241.895C242.09 136.133 242.188 135.807 242.188 135.156V133.984C241.927 133.984 241.764 134.668 241.699 136.035ZM241.113 137.598C241.504 138.053 241.699 138.672 241.699 139.453H241.895L242.188 138.281V136.621C241.471 136.621 241.113 136.947 241.113 137.598ZM245.41 136.719H245.215V137.207H245.41V136.719ZM247.656 137.207L247.461 139.16V141.602H247.559C248.405 140.56 248.828 139.583 248.828 138.672V138.574C248.828 137.663 248.438 137.207 247.656 137.207ZM245.117 141.699V141.895H245.215L245.605 140.82V140.625H245.41C245.215 140.625 245.117 140.983 245.117 141.699ZM207.422 142.09L207.227 142.48V142.578C207.357 143.75 207.78 144.336 208.496 144.336H209.082L209.375 144.043V143.848C208.789 143.132 208.496 142.546 208.496 142.09H207.422ZM245.41 143.457H245.02V143.848L245.41 144.238L245.703 144.043V143.848L245.41 143.457ZM250.684 145.703V145.996C253.613 145.996 255.078 145.768 255.078 145.312V145.117H253.711C251.693 145.182 250.684 145.378 250.684 145.703ZM211.523 146.68C211.523 147.005 212.37 147.168 214.062 147.168C217.318 147.168 218.945 147.005 218.945 146.68C218.945 146.289 217.839 146.094 215.625 146.094C213.151 146.094 211.784 146.289 211.523 146.68ZM237.988 146.973H237.695V147.559L237.988 147.852H238.281L238.379 147.559V147.461L237.988 146.973ZM251.562 147.754V148.047C251.693 148.372 251.986 148.535 252.441 148.535C253.483 148.535 254.102 148.307 254.297 147.852V147.559C254.167 147.168 253.809 146.973 253.223 146.973H252.734C252.083 146.973 251.693 147.233 251.562 147.754ZM240.137 149.512C240.332 150.033 240.658 150.293 241.113 150.293C244.629 150.228 246.387 150 246.387 149.609C245.931 149.023 245.117 148.73 243.945 148.73C241.406 148.796 240.137 149.056 240.137 149.512ZM237.695 151.367L237.305 151.758V151.953C237.305 152.409 238.184 152.637 239.941 152.637H240.43L241.211 152.441V152.344C240.56 151.693 239.518 151.367 238.086 151.367H237.695ZM283.398 100.977C286.133 100.977 289.453 102.148 293.359 104.492C296.68 106.966 298.34 108.659 298.34 109.57C300.944 115.039 302.246 118.327 302.246 119.434L302.344 120.215C301.367 122.493 300.879 124.056 300.879 124.902L300.293 125H291.992C291.211 125 290.267 125.098 289.16 125.293C279.785 124.512 273.21 124.121 269.434 124.121H267.383C266.602 125.293 266.211 126.139 266.211 126.66C266.667 127.376 266.895 128.516 266.895 130.078C266.895 132.552 267.285 134.017 268.066 134.473L268.164 134.961V135.059L267.578 134.766V135.059L268.457 136.035C268.457 136.882 269.043 137.956 270.215 139.258C272.363 143.034 274.707 145.378 277.246 146.289C279.395 147.005 281.836 147.363 284.57 147.363C285.026 147.363 285.97 146.94 287.402 146.094C288.574 145.833 291.048 143.717 294.824 139.746V139.453C294.824 139.323 294.368 139.193 293.457 139.062L293.262 138.574C294.759 135.71 296.549 133.822 298.633 132.91C299.219 133.496 300.423 134.408 302.246 135.645C303.678 137.858 305.599 140.462 308.008 143.457V143.848C305.924 146.582 304.427 147.949 303.516 147.949H303.125C303.125 146.517 302.246 145.703 300.488 145.508C300.163 145.508 298.73 146.582 296.191 148.73C294.694 149.902 292.122 151.009 288.477 152.051C284.245 152.897 281.25 153.32 279.492 153.32L273.926 151.367C270.801 151.367 267.936 149.674 265.332 146.289C264.225 145.117 263.314 143.717 262.598 142.09C262.598 141.569 261.882 138.867 260.449 133.984C259.993 132.096 259.766 130.273 259.766 128.516V128.418C259.766 119.759 262.37 112.174 267.578 105.664C268.229 104.036 269.727 102.832 272.07 102.051C273.633 101.595 275.521 101.237 277.734 100.977C278.32 100.716 280.208 100.716 283.398 100.977ZM274.414 103.027V103.125H274.609C275.651 103.125 277.604 102.767 280.469 102.051C281.055 101.986 281.348 101.823 281.348 101.562L281.055 101.27H280.957C279.069 101.27 276.953 101.79 274.609 102.832L274.414 103.027ZM270.508 104.688V104.785L270.801 104.98H270.898C272.201 104.655 272.852 104.329 272.852 104.004V103.418L272.461 103.027H272.266C271.094 103.418 270.508 103.971 270.508 104.688ZM285.547 103.711H282.617V103.906C282.617 104.167 283.952 104.362 286.621 104.492H286.719V104.102C286.719 103.971 286.328 103.841 285.547 103.711ZM278.613 105.176V105.273C278.613 105.534 279.948 105.859 282.617 106.25L282.812 106.152V105.762C282.292 105.046 281.413 104.688 280.176 104.688H279.883C279.036 104.753 278.613 104.915 278.613 105.176ZM284.57 105.762V105.859C288.281 108.008 290.267 109.082 290.527 109.082H290.625L291.602 108.691L292.188 108.887L292.285 108.691V108.594C292.025 108.398 291.471 108.203 290.625 108.008L288.672 107.129C288.151 106.022 287.109 105.469 285.547 105.469H285.254C284.798 105.534 284.57 105.632 284.57 105.762ZM272.949 108.594C273.6 108.073 274.902 107.52 276.855 106.934V106.738L276.758 106.543H275.781C273.893 107.064 272.949 107.747 272.949 108.594ZM267.773 115.039V115.332C267.773 116.048 273.698 116.862 285.547 117.773L286.523 118.066L287.793 117.969C290.397 118.815 292.155 119.238 293.066 119.238C293.066 119.434 293.262 119.596 293.652 119.727C294.043 119.141 294.238 118.587 294.238 118.066V116.211C294.238 115.365 292.611 113.477 289.355 110.547C287.858 109.049 286.165 108.203 284.277 108.008L280.957 107.422C275.553 108.529 272.005 109.863 270.312 111.426C269.596 112.793 268.75 113.997 267.773 115.039ZM268.848 109.18V109.375H269.043C269.889 109.18 270.312 108.952 270.312 108.691V108.594H269.824C269.499 108.594 269.173 108.789 268.848 109.18ZM292.188 110.547C292.318 111.068 292.611 111.328 293.066 111.328H293.262L293.457 111.035V110.449L293.066 109.961C292.48 109.961 292.188 110.156 292.188 110.547ZM266.992 111.035L266.797 111.328V111.426H266.992L267.383 111.133V111.035H266.992ZM294.629 111.816H294.238C294.954 113.965 295.475 115.137 295.801 115.332H296.191L296.484 115.137C295.964 113.053 295.41 112.012 294.824 112.012L294.629 111.816ZM267.871 113.574C268.262 113.509 268.457 113.249 268.457 112.793V112.695C268.066 112.826 267.871 113.118 267.871 113.574ZM297.949 116.211L297.656 116.406V117.09L297.949 117.48C298.21 117.415 298.34 117.188 298.34 116.797V116.406L298.242 116.211H297.949ZM266.797 117.578V117.969L266.992 118.164H267.188C267.643 117.969 268.034 117.611 268.359 117.09V116.797H267.871C267.48 116.797 267.122 117.057 266.797 117.578ZM262.793 116.992C262.272 117.513 261.816 118.815 261.426 120.898H261.621C262.012 120.898 262.598 119.759 263.379 117.48C263.249 117.155 263.053 116.992 262.793 116.992ZM272.754 118.164V118.457C273.991 119.303 276.237 119.727 279.492 119.727H280.371L281.641 119.629V119.238C278.971 118.652 276.009 118.294 272.754 118.164ZM290.625 120.703H290.332V120.996H290.625V120.703ZM271.777 121.484V121.68C273.079 122.005 276.53 122.331 282.129 122.656V122.754V122.852L280.078 123.145C280.078 123.34 280.924 123.438 282.617 123.438C285.352 123.438 286.719 123.307 286.719 123.047C286.719 122.396 281.738 121.875 271.777 121.484ZM261.914 122.168H261.426V122.754C261.426 123.145 261.523 123.34 261.719 123.34C262.044 123.34 262.24 123.014 262.305 122.363L261.914 122.168ZM269.824 122.363L269.336 122.461V123.047H269.824V122.656V122.461V122.363ZM266.699 123.145V123.242H266.797L268.457 123.047V122.852L268.164 122.461H267.871C267.285 122.461 266.895 122.689 266.699 123.145ZM290.43 123.34C290.43 123.6 291.016 123.73 292.188 123.73L293.066 123.633V123.438C293.066 123.177 292.448 123.047 291.211 123.047C290.69 123.177 290.43 123.275 290.43 123.34ZM261.426 125.879V126.172V126.27C261.361 126.465 261.328 126.921 261.328 127.637V128.027C261.328 129.199 261.654 130.241 262.305 131.152H262.402C262.402 128.027 262.077 126.27 261.426 125.879ZM263.184 134.375H262.891V134.57L263.184 134.766H263.379V134.57L263.184 134.375ZM263.867 136.035L263.77 136.133V136.328C264.03 137.37 264.421 137.891 264.941 137.891V137.793V137.598C264.941 137.077 264.583 136.556 263.867 136.035ZM295.703 136.914L295.898 137.207H296.387C296.777 137.207 297.005 137.077 297.07 136.816L296.68 136.426H296.582C296.126 136.426 295.833 136.589 295.703 136.914ZM293.457 142.578L293.652 142.676H293.75C294.466 142.676 294.922 142.253 295.117 141.406V141.211C294.401 141.211 293.848 141.667 293.457 142.578ZM300.293 142.383L300.391 142.48H300.684C301.074 142.22 301.27 141.862 301.27 141.406H300.977C300.521 141.667 300.293 141.992 300.293 142.383ZM303.711 141.406H303.613V141.602C303.809 142.383 304.102 142.773 304.492 142.773H304.59L304.785 142.578V142.48C304.655 141.764 304.297 141.406 303.711 141.406ZM298.047 143.457L298.34 143.652C299.316 143.327 299.805 142.904 299.805 142.383V142.188H299.707C298.796 142.188 298.242 142.611 298.047 143.457ZM290.43 145.605H290.625C291.146 145.41 291.439 145.085 291.504 144.629L291.406 144.531C290.755 144.922 290.43 145.28 290.43 145.605ZM296.191 146.094H296.582C297.233 145.508 297.559 145.085 297.559 144.824H297.461C296.615 145.085 296.191 145.508 296.191 146.094ZM268.457 146.973H268.164V147.363C268.294 147.689 268.848 148.047 269.824 148.438L270.215 148.73C269.499 147.624 268.913 147.038 268.457 146.973ZM275.293 147.363H275.195V147.461C275.195 147.721 275.879 148.014 277.246 148.34L277.344 148.242V148.047C276.497 147.591 275.814 147.363 275.293 147.363ZM281.055 148.438H280.762V148.73H281.055V148.438ZM291.211 149.902C291.862 149.902 292.383 149.414 292.773 148.438H292.48C291.634 148.893 291.211 149.382 291.211 149.902ZM284.375 150.879L282.324 150.684H281.934C281.348 150.684 281.022 150.814 280.957 151.074V151.27L281.348 151.562H283.105C285.124 151.562 287.5 151.204 290.234 150.488C290.104 150.098 289.714 149.902 289.062 149.902H288.574C287.012 149.902 285.612 150.228 284.375 150.879ZM309.961 100.781L310.156 100.586C311.654 100.846 313.216 100.977 314.844 100.977H322.852L323.145 101.27C322.754 102.441 322.559 103.353 322.559 104.004V105.664C322.819 107.487 323.34 108.398 324.121 108.398C324.512 107.682 325.814 106.999 328.027 106.348C333.301 104.069 337.598 102.93 340.918 102.93C343.132 102.93 345.508 103.906 348.047 105.859C349.935 106.576 351.758 108.105 353.516 110.449C356.185 114.681 357.52 119.661 357.52 125.391V126.172L356.836 133.203L357.52 138.281L356.543 142.871V143.066V143.848L360.254 144.043H361.914C363.021 144.043 363.672 144.141 363.867 144.336C363.607 149.089 363.118 151.465 362.402 151.465C361.1 152.246 359.701 152.637 358.203 152.637H356.152C353.027 152.637 349.74 153.06 346.289 153.906C344.01 153.581 342.871 152.441 342.871 150.488L342.773 146.973C342.773 144.824 343.327 143.262 344.434 142.285C345.02 139.095 345.703 136.198 346.484 133.594L347.07 124.902C347.266 124.902 347.363 124.186 347.363 122.754C347.363 120.996 345.964 118.49 343.164 115.234C341.016 114.323 339.779 113.867 339.453 113.867C335.677 113.867 332.292 115.462 329.297 118.652C329.036 118.652 327.441 120.247 324.512 123.438C323.6 124.154 323.145 126.335 323.145 129.98C323.275 136.556 323.503 139.844 323.828 139.844C326.432 140.299 327.734 140.788 327.734 141.309V141.699L325.586 141.602L324.023 141.699V142.09C324.023 142.35 325.26 142.676 327.734 143.066C328.19 143.522 328.418 144.271 328.418 145.312V145.508C328.418 147.07 328.092 148.73 327.441 150.488L316.113 150.586C315.007 150.586 314.193 150.033 313.672 148.926C313.411 147.689 313.118 145.28 312.793 141.699C312.793 141.374 313.77 141.016 315.723 140.625L316.211 139.941V139.844C316.211 139.453 315.951 138.9 315.43 138.184V135.156V129.59L315.82 120.605C315.82 114.486 315.56 111.426 315.039 111.426H314.551L309.961 112.012C309.505 112.012 308.887 111.621 308.105 110.84V110.449C308.431 109.928 308.594 109.375 308.594 108.789L308.398 105.176L309.961 100.781ZM318.457 102.539L310.449 103.809V104.004C310.449 104.199 310.938 104.329 311.914 104.395C316.146 104.395 318.262 104.102 318.262 103.516L318.652 102.93V102.734H318.457V102.539ZM337.891 104.395V104.492C338.346 104.492 339.128 104.883 340.234 105.664L341.309 105.957L344.434 105.859L344.531 105.664V105.566C344.466 105.176 344.108 104.98 343.457 104.98H343.066L342.09 105.176C340.658 104.329 339.616 103.906 338.965 103.906C338.379 103.906 338.021 104.069 337.891 104.395ZM331.25 106.152V106.25L331.445 106.543C334.505 105.762 336.035 105.176 336.035 104.785H335.84C334.408 104.785 332.878 105.241 331.25 106.152ZM312.402 106.25L312.695 106.543H312.891C313.737 106.478 314.16 106.283 314.16 105.957L313.672 105.859C312.826 105.859 312.402 105.99 312.402 106.25ZM313.281 108.203V108.398L315.137 108.301H315.43C316.081 108.301 316.471 108.464 316.602 108.789V109.082C316.276 109.408 316.113 109.733 316.113 110.059C316.439 110.319 316.829 110.449 317.285 110.449C317.48 110.449 317.578 110.319 317.578 110.059L317.676 106.836L317.578 106.543H317.285C316.895 106.803 315.592 107.324 313.379 108.105L313.281 108.203ZM329.492 107.129L329.59 107.227V107.324C330.176 107.129 330.469 106.966 330.469 106.836V106.641H330.273C329.753 106.771 329.492 106.934 329.492 107.129ZM309.766 107.227V107.324C309.766 107.52 309.928 107.682 310.254 107.812C310.775 107.812 311.361 107.52 312.012 106.934V106.836H310.449C309.993 106.901 309.766 107.031 309.766 107.227ZM343.457 108.789C343.457 109.049 344.043 109.245 345.215 109.375C345.475 109.18 345.605 108.919 345.605 108.594C345.605 108.268 345.085 108.008 344.043 107.812C343.652 108.073 343.457 108.398 343.457 108.789ZM323.73 109.57V109.961C324.642 109.961 325.618 109.375 326.66 108.203V108.105L326.562 108.008H326.465C325.684 108.008 324.772 108.529 323.73 109.57ZM347.168 108.203L346.875 108.594C347.005 108.919 347.266 109.082 347.656 109.082H348.145L348.633 108.691V108.594C348.568 108.333 348.242 108.203 347.656 108.203H347.168ZM336.328 109.18V109.375H336.816C337.793 109.245 338.281 109.049 338.281 108.789V108.594H337.598C336.751 108.659 336.328 108.854 336.328 109.18ZM320.312 108.691H319.824L319.629 109.277V111.035C319.629 111.816 319.499 112.337 319.238 112.598V113.086L319.629 114.453V115.234C319.629 115.755 319.792 116.113 320.117 116.309C320.182 116.309 320.378 115.56 320.703 114.062C321.615 113.346 322.07 112.793 322.07 112.402C322.07 112.077 321.712 111.361 320.996 110.254C320.801 109.212 320.573 108.691 320.312 108.691ZM310.547 110.254V110.449H311.523L311.914 110.059V109.961L311.426 109.766C310.84 109.961 310.547 110.124 310.547 110.254ZM345.508 110.547L344.922 110.254L344.727 110.449V110.547L345.215 110.84H345.312L345.508 110.547ZM337.988 111.23L338.184 111.426H338.281C339.714 111.426 340.43 111.296 340.43 111.035L339.648 110.84C338.542 110.97 337.988 111.1 337.988 111.23ZM323.828 115.039V115.332C325.521 115.137 327.865 113.737 330.859 111.133V111.035H330.273C330.013 111.035 329.232 111.491 327.93 112.402C325.195 113.249 323.828 114.128 323.828 115.039ZM347.168 111.23H347.07V111.523C347.07 111.719 347.493 112.63 348.34 114.258C348.34 114.779 348.47 115.039 348.73 115.039L349.121 114.648V114.258C349.121 113.216 348.47 112.207 347.168 111.23ZM316.797 112.402L316.992 112.695H317.188L317.48 111.426H317.188C316.992 111.426 316.862 111.751 316.797 112.402ZM341.406 113.086V113.379H343.848L344.238 113.086V112.695L343.75 112.402H343.262C342.025 112.598 341.406 112.826 341.406 113.086ZM331.738 114.648C333.171 114.388 333.887 114.03 333.887 113.574L333.594 113.379H333.301C332.324 113.379 331.803 113.802 331.738 114.648ZM328.613 115.82V116.016H328.906C329.948 115.169 330.469 114.453 330.469 113.867H330.273V113.672C329.753 113.672 329.199 114.388 328.613 115.82ZM321.094 114.844L321.289 115.43C321.289 115.951 320.996 116.471 320.41 116.992C320.736 117.318 320.898 117.643 320.898 117.969C320.898 121.224 321.126 122.852 321.582 122.852H321.68C322.201 121.68 322.461 120.15 322.461 118.262C322.396 115.853 322.103 114.583 321.582 114.453H321.387C321.191 114.453 321.094 114.583 321.094 114.844ZM348.633 116.113V116.406C349.414 119.336 349.902 120.866 350.098 120.996L350.293 120.312V119.434C349.837 117.22 349.284 116.113 348.633 116.113ZM353.027 116.309H352.93C353.06 119.759 353.385 121.484 353.906 121.484H354.102C353.776 118.034 353.418 116.309 353.027 116.309ZM327.441 116.504L326.855 117.285V117.48L326.953 117.676H327.441L327.734 116.504H327.441ZM324.707 117.48L324.512 117.676L324.707 117.969H325.098V117.676L324.902 117.48H324.707ZM352.344 129.004V129.102L352.637 130.273H353.125C353.06 129.427 352.799 129.004 352.344 129.004ZM348.633 136.035L348.73 136.133H348.828C349.023 136.133 349.121 135.807 349.121 135.156V133.984C348.861 133.984 348.698 134.668 348.633 136.035ZM348.047 137.598C348.438 138.053 348.633 138.672 348.633 139.453H348.828L349.121 138.281V136.621C348.405 136.621 348.047 136.947 348.047 137.598ZM352.344 136.719H352.148V137.207H352.344V136.719ZM354.59 137.207L354.395 139.16V141.602H354.492C355.339 140.56 355.762 139.583 355.762 138.672V138.574C355.762 137.663 355.371 137.207 354.59 137.207ZM352.051 141.699V141.895H352.148L352.539 140.82V140.625H352.344C352.148 140.625 352.051 140.983 352.051 141.699ZM314.355 142.09L314.16 142.48V142.578C314.29 143.75 314.714 144.336 315.43 144.336H316.016L316.309 144.043V143.848C315.723 143.132 315.43 142.546 315.43 142.09H314.355ZM352.344 143.457H351.953V143.848L352.344 144.238L352.637 144.043V143.848L352.344 143.457ZM357.617 145.703V145.996C360.547 145.996 362.012 145.768 362.012 145.312V145.117H360.645C358.626 145.182 357.617 145.378 357.617 145.703ZM318.457 146.68C318.457 147.005 319.303 147.168 320.996 147.168C324.251 147.168 325.879 147.005 325.879 146.68C325.879 146.289 324.772 146.094 322.559 146.094C320.085 146.094 318.717 146.289 318.457 146.68ZM344.922 146.973H344.629V147.559L344.922 147.852H345.215L345.312 147.559V147.461L344.922 146.973ZM358.496 147.754V148.047C358.626 148.372 358.919 148.535 359.375 148.535C360.417 148.535 361.035 148.307 361.23 147.852V147.559C361.1 147.168 360.742 146.973 360.156 146.973H359.668C359.017 146.973 358.626 147.233 358.496 147.754ZM347.07 149.512C347.266 150.033 347.591 150.293 348.047 150.293C351.562 150.228 353.32 150 353.32 149.609C352.865 149.023 352.051 148.73 350.879 148.73C348.34 148.796 347.07 149.056 347.07 149.512ZM344.629 151.367L344.238 151.758V151.953C344.238 152.409 345.117 152.637 346.875 152.637H347.363L348.145 152.441V152.344C347.493 151.693 346.452 151.367 345.02 151.367H344.629Z" fill="black"/>
<path d="M375.879 136.426C377.897 136.686 379.297 137.174 380.078 137.891C380.339 138.411 380.469 138.997 380.469 139.648V141.016C380.469 143.685 378.939 146.257 375.879 148.73L374.609 149.121C373.372 149.121 372.103 147.266 370.801 143.555V143.164C370.801 140.299 371.224 138.542 372.07 137.891C373.958 136.914 375.228 136.426 375.879 136.426ZM372.754 140.723C372.884 142.415 373.112 143.262 373.438 143.262C373.568 143.132 373.861 141.992 374.316 139.844L374.609 139.16V138.867H374.512C373.34 139.258 372.754 139.876 372.754 140.723ZM375.391 141.309V141.504C375.391 142.155 375.521 142.513 375.781 142.578H375.879C376.139 142.578 376.53 141.895 377.051 140.527V139.941L376.758 139.844H376.465C375.749 139.844 375.391 140.332 375.391 141.309ZM378.223 142.578L378.32 142.773H378.809L378.906 142.09V141.797H378.809C378.613 141.797 378.418 142.057 378.223 142.578ZM376.855 144.531L373.242 144.922C373.242 145.443 373.438 145.736 373.828 145.801H374.902C375.684 145.801 376.335 145.443 376.855 144.727V144.531Z" fill="#FF0000"/>
<path d="M188.243 29.3213C188.243 28.5171 187.277 28.0515 186.669 27.7474C185.126 26.9761 183.865 26.4298 182.131 26.3386C178.918 26.1694 175.619 25.9471 172.415 26.4454C168.718 27.0206 165.637 28.9247 162.437 30.7107C158.469 32.9254 156.39 36.8927 153.887 40.514C151.409 44.099 149.243 47.2815 149.243 51.7455C149.243 52.8267 149.227 53.9095 149.243 54.9906C149.261 56.1461 149.626 57.0772 149.904 58.1774C150.424 60.2381 150.731 62.3126 152.003 64.0846C152.679 65.0279 153.126 66.0977 153.868 66.9993C154.755 68.0783 155.804 68.8704 156.899 69.7198C159.31 71.5903 161.721 73.2062 164.38 74.7137C166.603 75.9735 168.847 77.0663 171.279 77.8617C173.246 78.5052 175.212 78.6309 177.225 78.9887C180.39 79.5514 184.017 79.7179 187.096 78.7264C188.734 78.1989 190.247 77.1042 191.75 76.2585C193.118 75.4892 194.469 74.4715 195.656 73.4604C196.888 72.4106 197.995 70.9868 198.833 69.6129C199.793 68.0387 200.978 66.6256 201.952 65.0756C203.148 63.1701 204.296 60.9926 205.032 58.8672C205.786 56.6888 206.166 54.4927 206.606 52.2313C207.281 48.7557 207.765 44.1506 206.567 40.7277C205.441 37.5119 203.386 34.7791 200.426 32.9939C197.764 31.3882 195.082 29.7517 192.226 28.4858C190.449 27.6981 188.717 26.9282 186.805 26.5232C183.129 25.7448 179.074 26.7368 175.476 27.3976" stroke="#EBFF00" stroke-width="3" stroke-linecap="round"/>
<path d="M173.223 2.42513C174.534 2.50708 174.7 6.81239 174.933 7.80001C175.149 8.71603 175.177 9.5594 175.177 10.4874" stroke="#EBFF00" stroke-width="3" stroke-linecap="round"/>
<path d="M211.091 10.4874C210.951 11.3717 210.11 12.1533 209.625 12.8763C208.954 13.8761 208.41 14.9561 207.725 15.9438C207.28 16.5847 206.627 17.3477 206.449 18.0611" stroke="#EBFF00" stroke-width="3" stroke-linecap="round"/>
<path d="M141.218 13.1749C142.668 13.1749 143.753 13.8749 144.937 14.6408C146.794 15.8429 148.92 16.724 150.501 18.3054" stroke="#EBFF00" stroke-width="3" stroke-linecap="round"/>
<path d="M131.201 47.8673C134.109 47.8673 137.756 47.1867 140.485 48.3559" stroke="#EBFF00" stroke-width="3" stroke-linecap="round"/>
<path d="M216.466 47.8673C219.969 47.8673 223.466 47.623 226.971 47.623" stroke="#EBFF00" stroke-width="3" stroke-linecap="round"/>
<path d="M146.837 73.2758C146.837 75.6007 142.657 76.5831 142.195 78.895" stroke="#EBFF00" stroke-width="3" stroke-linecap="round"/>
<path d="M210.358 74.986C214.56 74.986 218.529 77.375 222.329 78.895" stroke="#EBFF00" stroke-width="3" stroke-linecap="round"/>
<path d="M166.472 77.3581C166.833 78.7114 166.856 80.2202 167.012 81.6119C167.068 82.1054 167.253 82.5593 167.253 83.0588C167.253 83.6723 167.34 84.2768 167.34 84.8915C167.34 87.2666 167.253 89.6352 167.253 92.0101C167.253 92.23 167.257 92.3551 167.49 92.4586C167.815 92.6031 168.207 92.6364 168.546 92.7431C169.496 93.0419 170.434 93.351 171.401 93.592C173.367 94.0816 175.304 94.0881 177.304 94.1128C178.035 94.1218 178.717 94.3835 179.436 94.4504C179.861 94.49 180.302 94.4601 180.729 94.4601C181.644 94.4601 182.496 94.428 183.4 94.3057C184.412 94.1691 185.398 93.8354 186.352 93.4859C186.813 93.3172 187.193 93.2415 187.659 93.1483C188.095 93.061 188.425 92.6829 188.85 92.5695C189.528 92.3888 190.262 92.0852 190.934 91.8364C191.295 91.7026 191.214 91.2341 191.214 90.9297C191.214 89.503 190.834 88.1817 190.712 86.7724C190.606 85.5517 190.606 84.3325 190.606 83.107C190.606 82.232 190.663 81.3676 190.693 80.5027C190.707 80.0749 190.866 79.6857 190.866 79.268" stroke="black" stroke-width="3" stroke-linecap="round"/>
<path d="M168.556 84.4767C168.951 84.8005 169.477 85.1037 169.911 85.3834C170.659 85.8652 171.52 86.0661 172.385 86.2129C173.375 86.3811 174.329 86.7134 175.327 86.8399C177.48 87.1129 179.887 87.0005 182.012 86.6277C183.437 86.3776 184.981 85.9352 186.178 85.1037C186.994 84.5377 187.946 84.1973 188.783 83.6954" stroke="black" stroke-width="3" stroke-linecap="round"/>
<path d="M167.858 75.6718C167.39 75.5868 167.079 74.7641 166.843 74.4303C165.89 73.0857 164.785 71.8554 163.725 70.5969C162.783 69.4781 161.965 68.2408 161.092 67.0671C160.117 65.7552 159.288 64.2656 158.65 62.7579C157.857 60.8842 156.847 58.8773 156.847 56.7949C156.847 55.3366 157.123 54.062 157.585 52.676C157.743 52.2026 157.947 51.6369 158.274 51.2532C158.567 50.9097 158.726 50.4874 159.031 50.1612C159.498 49.6612 159.861 49.3921 160.526 49.2051C161.491 48.9338 162.456 49.0012 163.453 49.0012C165.038 49.0012 166.624 48.911 168.184 49.2278C172.079 50.019 175.731 51.9729 178.56 54.774C181.403 57.5883 182.589 62.9614 179.503 66.0476C178.778 66.7723 177.773 67.2381 176.784 67.4613C176.009 67.6363 174.848 67.7643 174.056 67.561C172.887 67.2607 172.159 65.4881 171.976 64.4526C171.754 63.1914 171.627 61.7921 171.854 60.5195C172.095 59.1677 172.702 58.0307 173.241 56.7949C174.016 55.0132 174.774 53.1454 176.141 51.7335C177.07 50.7731 178.073 49.7254 179.276 49.1009C180.223 48.6094 181.512 48.4096 182.566 48.3125C183.924 48.1874 185.332 48.1856 186.698 48.1856C187.78 48.1856 188.8 48.1817 189.861 48.3669C190.717 48.5163 191.518 49.0004 192.195 49.5223C193.112 50.2297 193.721 51.2263 194.247 52.2637C194.844 53.4422 195.399 54.8994 195.57 56.2149C195.645 56.7872 195.845 57.3347 195.897 57.9095C195.963 58.6502 195.996 59.4221 195.996 60.1661C195.996 61.319 196.067 62.4963 195.978 63.646C195.806 65.8864 195.3 68.4094 194.157 70.3703C193.631 71.2705 193.227 72.2363 192.652 73.1072C192.277 73.6756 191.873 74.1944 191.474 74.7384C191.003 75.3813 190.627 76.0928 189.961 76.569" stroke="#FFA800" stroke-width="3" stroke-linecap="round"/>
</svg>
